<svg version="1" xmlns="http://www.w3.org/2000/svg" width="1342.667" height="1342.667" viewBox="0 0 1007.000000 1007.000000"><path d="M456.5 1.5c-14.1 1.3-27.4 3-33 4-1.6.4-9.7 1.9-18 3.5-8.2 1.6-15.9 3.1-17 3.4-1.1.3-7.2 1.9-13.5 3.5-25.2 6.6-54.9 17-74.8 26.2-3.4 1.6-6.5 2.9-6.8 2.9-1.2 0-29.9 14.8-40.9 21.2-47.4 27.3-90.3 62.2-126 102.3-34.8 39.1-66.8 89.6-86 135.5-3.1 7.4-6.1 14.6-6.7 16-.6 1.4-1.2 2.9-1.4 3.5-.2 1-4.8 13.4-6.1 16.5-.3.8-.7 1.9-.9 2.5-.1.5-1.9 6.4-3.9 13-3.2 10.4-7.6 26.5-9.1 33-1.1 5.1-6.4 32.4-6.9 36-.3 2.2-.8 4.7-1 5.5-.2.8-.6 3.5-.9 6-.3 2.5-.8 7.1-1.2 10.2-.3 3.2-.4 5.8-.1 5.8.3 0 2.1-3.3 4.1-7.4 6-12.2 15-25.2 19.7-28.3 8.8-5.8 15.1-2.9 24.9 11.5 7.1 10.3 11.7 19.6 24.5 48.7 13 29.7 21.3 44.2 29.8 52.2 9.9 9.4 17.5 9.4 27.4.1 8.6-8.2 14.5-18.4 27.5-47.3 5-11 10.8-23.7 12.9-28.3 2.2-4.6 3.9-8.5 3.9-8.8 0-1.4 12-20.1 15.2-23.9 12.5-14.3 23.4-7.4 39.9 25.4 3.2 6.5 5.9 12.1 5.9 12.4 0 .3 2.5 5.8 5.5 12.2 3 6.5 5.5 11.8 5.5 12 0 .6 8.1 18 10.7 23 4.4 8.6 13.1 21.1 17 24.5 4.2 3.7 9.1 6 12.8 6 6.5 0 15.5-6.8 22-16.6 3.8-5.7 15.1-27.2 17.5-33.4.7-1.9 3.3-7.7 5.7-12.8 2.4-5.2 4.3-9.6 4.3-9.8 0-1.8 14.3-29.3 18.3-35.4 18.3-27.2 29.9-18.5 56.8 42.5 16.5 37.3 24.2 51 33 58.9 17.2 15.5 30.8 4.3 52.2-42.9 3.7-8.3 7.4-16.4 8.2-18 .7-1.7 3.2-7.3 5.6-12.5 16.3-36.6 28.9-48.7 40.6-39.4 7.1 5.6 16.4 21 26.8 44.4 2.4 5.2 5.7 12.5 7.4 16.3 1.7 3.7 3.1 7 3.1 7.2 0 .2 2.3 5.3 5.2 11.2 7.6 15.7 14.9 27.2 21.1 33 9.9 9.4 17.5 9.4 27.4.1 9.2-8.8 14.5-18.2 31.8-56.8 17.5-38.8 26.3-53.3 35.1-57.5 2.2-1 4.6-1.4 6.2-1 10.8 2.6 19.5 16.1 39.7 61.5 10.5 23.5 13.2 29 19.2 39.1 14.3 24.1 26.9 27.9 40.9 12.6 8-8.7 17.3-26 31.4-58.7 10.3-23.9 21.7-44.1 28.3-50.1 13.9-12.7 25-1 48.2 51.1 17.9 40.1 24.8 52.4 33.6 60.4 8.5 7.6 15.7 8.4 23.8 2.6 4.8-3.5 11.6-12.4 16.8-21.9 1.9-3.6 4.4-7.8 5.4-9.3 1.6-2.3 1.9-4.6 1.9-14.5 0-14.9-2.7-46.1-5.4-61.8-.7-4.1-5.6-30.1-6.1-32.3-.3-1.2-.7-3-1-4-4.8-18-6.6-24.9-6.9-25.7-.1-.6-1.3-4.4-2.5-8.5-2.5-8.7-3.8-12.2-5.7-16.7-.8-1.7-1.4-3.6-1.4-4.2 0-1.2-5.9-16-12.6-31.9-10.9-25.5-28.3-57.1-45.2-81.7-7.6-11.1-25.3-34.6-28.2-37.5-.9-.9-2.3-2.6-3.2-3.9-5.5-7.8-34.7-37.8-50.4-51.6-29.9-26.4-63.4-49.7-97.9-68.2-8.5-4.5-27.1-13.5-36-17.3-2.2-1-5.6-2.4-7.5-3.2-1.9-.9-5.7-2.4-8.5-3.3-2.7-1-5.4-2.1-6-2.5-1.2-.8-21.5-7.7-35-11.8-13-4-36-9.5-50.5-12.1-6.3-1.2-12.6-2.3-14-2.6-24.6-5-92.1-7.2-126.5-4z"/><path d="M27.4 471.4c-1.7.8-4.7 2.8-6.7 4.6-4.1 3.5-13.2 16.7-16.8 24.2-1.3 2.7-2.7 4.8-3.1 4.8-2.7 0 .7 56.7 4.7 78.5 1.3 7.3 6.5 33.4 6.9 35 .3 1.1 1.7 6.3 3 11.5 2.9 11.6 8.7 30.7 12.6 41.5 4.4 12.3 10.1 26.9 11 28 .5.5.8 1.2.9 1.5.1 1.7 5.7 13.9 13.4 29.4 9.7 19.2 24.2 44 33.8 57.4 3.2 4.5 5.9 8.5 5.9 8.8 0 .3 1 1.8 2.3 3.3 1.2 1.5 3.3 4.2 4.7 6.1 24.6 33 57.2 66.5 89.5 92.1 17.9 14.2 44.4 32.4 57.5 39.5 1.9 1 3.7 2.2 3.8 2.6.2.5.8.8 1.2.8.5 0 3.3 1.4 6.2 3.1 16.6 9.8 53.4 26.6 72.3 33 3.3 1.1 6.7 2.3 7.5 2.6.8.4 1.7.7 2 .7.3.1 1 .4 1.5.7.6.4 5.3 1.9 10.5 3.3 5.2 1.5 10.4 3.1 11.5 3.6 1.1.5 7 2.1 13 3.5 13.8 3.4 12.7 3.1 14.5 3.8 1.2.5 24.4 4.8 33.5 6.3 41.6 6.7 112.2 7.3 149.5 1.3 3.6-.6 7.6-1.2 9-1.4 2-.2 23.2-4.2 31.5-6 20.9-4.4 55.9-15.4 77.5-24.3 21.5-9 25.1-10.6 41.7-19.2 21.8-11.2 31.6-17 52.3-30.9 13.5-9.1 28.3-20 28.8-21.3.2-.4.7-.8 1.2-.8.4 0 2.1-1.1 3.6-2.4 1.6-1.4 6.7-5.7 11.4-9.7 65.5-55.5 116.9-129.7 146.5-211.5 9.7-26.8 20.7-68 22.9-85.9.2-1.7.6-4.1 1-5.5 1-3.9 3.6-26 3.6-30-.1-3.1-.7-2.2-6.3 8.5-11.5 22.2-18.4 30-26.8 30-9.9 0-20.5-15.7-39.4-58.5-8.4-18.9-9.8-21.9-14.7-31.5-6.5-12.8-11.3-19.8-17.5-25.7-9.5-8.8-17.3-8.7-27 .4-8.5 8.1-15.4 20.1-28.2 48.8-16.3 36.4-18.8 41.3-26 52.1-9.8 14.6-16.3 17.5-25.1 11.4-7.8-5.4-18.7-24.4-33.5-58.5-25-57.3-39.2-70.8-57.3-54.5-8.5 7.7-16.2 21.1-30.2 52.5-15.1 34.1-24.3 51.2-31.4 58.2-4.6 4.5-9.3 6.2-13.5 4.9-9-2.7-16.5-14-33.6-50.6-2.6-5.5-5.6-12.2-6.6-14.9-3.4-8.4-16.3-33.9-20.3-39.8-4.8-7.4-12.7-14.5-17.6-15.9-14.4-4.3-25.7 9.3-46.4 55.6-18.8 41.9-27.9 58-35.8 63.2-5.7 3.8-10.5 3.7-15.5-.3-4.1-3.4-13.7-16.9-17.6-24.9-3.4-6.8-9.6-20.3-14-30-12.9-28.8-15.9-34.9-20.9-43-6.7-10.8-14.8-18.8-20.7-20.6-13.9-4.1-26.8 11.4-46.3 55.6-2.2 4.9-4.9 11-6 13.5-1.1 2.5-3.4 7.4-5 11-8.3 18.6-17.4 33-24.1 38.4-12.6 10.1-24.8-3.1-45.2-49.4-3.7-8.5-8.8-19.7-11.1-24.8-2.4-5.1-4.4-9.5-4.4-9.6 0-.2-2.3-4.3-5.1-9.2-12.3-21.5-21.3-28.7-31.9-25.5-4.8 1.4-12.8 8.5-17.3 15.4-3.9 5.9-13.9 25-18.1 34.7-1.6 3.6-4.1 9.2-5.6 12.5-1.5 3.3-4.4 9.7-6.4 14.3-5.2 11.5-12.2 24.6-16.6 31.2-7.4 10.9-13.6 15-19.9 13.1-10.1-3-19.4-18.3-41.9-69.3-11.1-25-19.1-38.7-26.8-45.8-7.3-6.7-13.4-8.4-20-5.6z"/></svg>